<?xml version="1.0" encoding="UTF-8" standalone="no"?>
<!--
 
                  ╔╗╔┌─┐┌┬┐┌─┐╔═╗┬  ┬┌─┐┬─┐┌─┐┬  ┌─┐┬ ┬
                  ║║║│ │ │ └─┐║ ║└┐┌┘├┤ ├┬┘├┤ │  │ ││││
                  ╝╚╝└─┘ ┴ └─┘╚═╝ └┘ └─┘┴└─└  ┴─┘└─┘└┴┘
 
                   email_icon_open.svg created 2024/12/07
                   by Richard JUAN (contact@richard-juan.com)
 
                   All rights reserved to Richard JUAN
 
-->





<svg
   width="800px"
   height="800px"
   viewBox="0 0 20 20"
   version="1.1"
   id="svg1"
   sodipodi:docname="email_icon_open.svg"
   inkscape:version="1.4 (86a8ad7, 2024-10-11)"
   xmlns:inkscape="http://www.inkscape.org/namespaces/inkscape"
   xmlns:sodipodi="http://sodipodi.sourceforge.net/DTD/sodipodi-0.dtd"
   xmlns="http://www.w3.org/2000/svg"
   xmlns:svg="http://www.w3.org/2000/svg">
  <defs
     id="defs1">
    <filter
       style="color-interpolation-filters:sRGB;"
       inkscape:label="Invert"
       id="filter2"
       x="0"
       y="0"
       width="1"
       height="1">
      <feColorMatrix
         type="hueRotate"
         values="180"
         result="color1"
         id="feColorMatrix1" />
      <feColorMatrix
         values="-1 0 0 0 1 0 -1 0 0 1 0 0 -1 0 1 -0.21 -0.72 -0.07 2 0 "
         result="color2"
         id="feColorMatrix2" />
    </filter>
  </defs>
  <sodipodi:namedview
     id="namedview1"
     pagecolor="#ffffff"
     bordercolor="#000000"
     borderopacity="0.25"
     inkscape:showpageshadow="2"
     inkscape:pageopacity="0.0"
     inkscape:pagecheckerboard="0"
     inkscape:deskcolor="#d1d1d1"
     inkscape:zoom="1.00875"
     inkscape:cx="400"
     inkscape:cy="400"
     inkscape:window-width="1920"
     inkscape:window-height="1009"
     inkscape:window-x="-8"
     inkscape:window-y="-8"
     inkscape:window-maximized="1"
     inkscape:current-layer="svg1" />
  <g
     id="layer1"
     style="filter:url(#filter2)">
    <path
       d="M 3 0 L 3 4.5585938 L 0 6.8183594 L 0 20 L 20 20 L 20 6.8183594 L 17 4.5585938 L 17 0 L 3 0 z M 4 1 L 16 1 L 16 9.7617188 L 11.990234 12.783203 L 10.951172 12 L 9.0488281 12 L 8.0097656 12.783203 L 4 9.7617188 L 4 1 z M 5 4 L 5 5 L 15 5 L 15 4 L 5 4 z M 3 5.9921875 L 3 9.0078125 L 0.99804688 7.5 L 3 5.9921875 z M 17 5.9921875 L 19.001953 7.5 L 17 9.0078125 L 17 5.9921875 z M 5 6 L 5 7 L 15 7 L 15 6 L 5 6 z M 5 8 L 5 9 L 15 9 L 15 8 L 5 8 z M 1 8.7539062 L 7.1796875 13.410156 L 1 18.066406 L 1 8.7539062 z M 19 8.7539062 L 19 18.066406 L 12.820312 13.410156 L 19 8.7539062 z M 9.6230469 13 L 10.376953 13 L 18.337891 19 L 1.6621094 19 L 9.6230469 13 z "
       style="fill:#222222; fill-opacity:1; stroke:none; stroke-width:0px;"
       id="path1" />
  </g>
</svg>
